Coordinates
version=1
nRows=49
nColumns=13
inDegrees=yes

Units are S.I. units (second, meters, Newtons, ...)
If the header above contains a line with 'inDegrees', this indicates whether rotational values are in degrees (yes) or radians (no).

endheader
time	bJoint_3	seatpos	hipangle	kneeangle	footangle	lbackangle	uarmleft_out	uarmleft_trn	uarmleft_up	uarmright_out	uarmright_trn	uarmright_up
      1.74500000	      0.00000000	     -0.10912167	     66.85245914	     55.42277827	     32.27523741	     -8.87352919	      9.24871959	     28.35535134	     -0.00000000	     13.63062342	     29.07194958	     -0.00000000
      1.75000000	      0.00000000	     -0.11214873	     66.43899545	     56.21949768	     32.65849312	     -8.51400460	      8.76927943	     28.10104535	     -0.00000000	     13.13721450	     28.82115523	     -0.00000000
      1.75500000	     -0.00000000	     -0.11520759	     66.02682314	     57.01416494	     33.04098808	     -8.09637735	      8.26382542	     27.91257532	     -0.00000000	     12.63000975	     28.81679667	     -0.00000000
      1.76000000	      0.00000000	     -0.11809569	     65.64264691	     57.75525061	     33.39789752	     -7.71102609	      7.75247342	     27.85587896	     -0.00000000	     12.10746025	     28.58261902	     -0.00000000
      1.76500000	      0.00000000	     -0.12216193	     65.10960876	     58.78413034	     33.89373910	     -7.39131189	      7.34454185	     27.65592008	     -0.00000000	     11.69568875	     28.38611943	     -0.00000000
      1.77000000	      0.00000000	     -0.12507857	     64.73269077	     59.51211351	     34.24480428	     -6.96798297	      6.80599185	     27.46153474	     -0.00000000	     11.15432207	     28.19616631	     -0.00000000
      1.77500000	      0.00000000	     -0.12811137	     64.34536472	     60.26058987	     34.60595459	     -6.55083169	      6.42383085	     27.15385210	     -0.00000000	     10.74891865	     28.06667346	     -0.00000000
      1.78000000	      0.00000000	     -0.13102668	     63.97731030	     60.97219526	     34.94950556	     -6.12730803	      5.86981996	     26.96042331	     -0.00000000	     10.19221508	     27.87864266	     -0.00000000
      1.78500000	      0.00000000	     -0.13513387	     63.46560005	     61.96215246	     35.42775251	     -5.81203792	      5.44503988	     26.75996825	     -0.00000000	      9.76363206	     27.68266549	     -0.00000000
      1.79000000	      0.00000000	     -0.13803463	     63.10881901	     62.65280229	     35.76162129	     -5.35082258	      4.78924133	     26.51606984	     -0.00000000	      9.09537145	     27.44455693	     -0.00000000
      1.79500000	     -0.00000000	     -0.14210999	     62.61376564	     63.61169361	     36.22545925	     -5.07838410	      4.59618811	     26.05864788	     -0.00000000	      8.58858266	     26.93107428	     -0.00000000
      1.80000000	     -0.00000000	     -0.14502399	     62.26406861	     64.28944528	     36.55351390	     -4.62887734	      3.93456671	     25.80538578	     -0.00000000	      8.20987606	     26.73740724	     -0.00000000
      1.80500000	      0.00000000	     -0.14916266	     61.77329640	     65.24119160	     37.01448800	     -4.27993968	      3.40711050	     25.55621578	     -0.00000000	      7.66898356	     26.49292142	     -0.00000000
      1.81000000	      0.00000000	     -0.15209489	     61.42962792	     65.90806601	     37.33769393	     -3.84903469	      2.80842644	     25.18567436	     -0.00000000	      6.98967422	     26.22941262	     -0.00000000
      1.81500000	      0.00000000	     -0.15599565	     60.97744660	     66.78601748	     37.76346408	     -3.49431116	      2.46898820	     24.89858695	     -0.00000000	      6.49602654	     25.87142748	     -0.00000000
      1.82000000	      0.00000000	     -0.15922286	     60.60751819	     67.50470493	     38.11222312	     -3.06988718	      1.81672791	     24.46220067	     -0.00000000	      6.04405972	     25.59627864	     -0.00000000
      1.82500000	      0.00000000	     -0.16312764	     60.16479536	     68.36533915	     38.53013451	     -2.71110843	      1.24693719	     24.01763112	     -0.00000000	      5.45916400	     25.15824901	     -0.00000000
      1.83000000	      0.00000000	     -0.16702938	     59.72756233	     69.21586809	     38.94343041	     -2.33700103	      0.87684796	     23.75264427	     -0.00000000	      4.86065358	     24.73418133	     -0.00000000
      1.83500000	     -0.00000000	     -0.16998716	     59.39942454	     69.85455343	     39.25397796	     -1.88046361	      0.16521366	     23.32481742	     -0.00000000	      4.34977335	     24.47163137	     -0.00000000
      1.84000000	      0.00000000	     -0.17422980	     58.93356508	     70.76185747	     39.69542255	     -1.53870347	     -0.38656908	     22.89084660	     -0.00000000	      3.71042408	     23.96499689	     -0.00000000
      1.84500000	      0.00000000	     -0.17815737	     58.50720232	     71.59281938	     40.10002171	     -1.17371626	     -0.76528912	     22.43270504	     -0.00000000	      3.10453240	     23.53464286	     -0.00000000
      1.85000000	      0.00000000	     -0.18208632	     58.08523947	     72.41576087	     40.50100034	     -0.80686775	     -1.36491528	     21.99704123	     -0.00000000	      2.70379239	     23.07928627	     -0.00000000
      1.85500000	      0.00000000	     -0.18510875	     57.76363589	     73.04335012	     40.80698601	     -0.35997759	     -1.93372793	     21.28104439	     -0.00000000	      1.96635627	     22.46435268	     -0.00000000
      1.86000000	     -0.00000000	     -0.18914046	     57.33857921	     73.87332653	     41.21190574	      0.06506479	     -2.58982571	     20.90154876	     -0.00000000	      1.44816483	     21.99454959	     -0.00000000
      1.86500000	      0.00000000	     -0.19310162	     56.92521709	     74.68102678	     41.60624387	      0.42536114	     -3.19758581	     20.46163011	     -0.00000000	      0.82739323	     21.56097291	     -0.00000000
      1.87000000	     -0.00000000	     -0.19706481	     56.51572942	     75.48170803	     41.99743745	      0.79545792	     -3.60693596	     19.81899037	     -0.00000000	      0.12630058	     20.87360378	     -0.00000000
      1.87500000	     -0.00000000	     -0.20104147	     56.10883389	     76.27787291	     42.38670680	      1.17568200	     -4.29524493	     19.13548605	     -0.00000000	     -0.30894776	     20.43471881	     -0.00000000
      1.88000000	      0.00000000	     -0.20513685	     55.69383228	     77.09047465	     42.78430693	      1.58985699	     -4.75199606	     18.72880110	     -0.00000000	     -1.04501054	     19.79293257	     -0.00000000
      1.88500000	      0.00000000	     -0.20914434	     55.29159017	     77.87865626	     43.17024643	      1.96268428	     -5.43993996	     18.04302740	     -0.00000000	     -1.48359899	     19.15654005	     -0.00000000
      1.89000000	      0.00000000	     -0.21315606	     54.89262804	     78.66096819	     43.55359623	      2.33501751	     -5.87097851	     17.40469221	     -0.00000000	     -2.19827093	     18.47630752	     -0.00000000
      1.89500000	      0.00000000	     -0.21731122	     54.48319394	     79.46440095	     43.94759489	      2.74310942	     -6.59632739	     16.75453748	     -0.00000000	     -2.66954338	     17.87376700	     -0.00000000
      1.90000000	      0.00000000	     -0.22135168	     54.08865977	     80.23916744	     44.32782721	      3.11025550	     -7.03058394	     15.91649981	     -0.00000000	     -3.38582673	     17.19274761	     -0.00000000
      1.90500000	      0.00000000	     -0.22595484	     53.64337481	     81.11428222	     44.75765703	      3.52085711	     -7.53973702	     15.27891759	     -0.00000000	     -3.90638186	     16.55754170	     -0.00000000
      1.91000000	      0.00000000	     -0.23002190	     53.25356184	     81.88098689	     45.13454873	      3.87682935	     -8.17809364	     14.64386383	     -0.00000000	     -4.35123059	     15.91167310	     -0.00000000
      1.91500000	      0.00000000	     -0.23424679	     52.85210946	     82.67118958	     45.52329903	      4.29315577	     -8.72314225	     13.79136959	     -0.00000000	     -5.11661158	     15.07672913	     -0.00000000
      1.92000000	      0.00000000	     -0.23834915	     52.46561119	     83.43254789	     45.89815908	      4.67009543	     -9.39337744	     13.16864691	     -0.00000000	     -5.64983884	     14.39582226	     -0.00000000
      1.92500000	     -0.00000000	     -0.24213667	     52.11159685	     84.13043429	     46.24203115	      5.12109506	    -10.01156803	     12.31488244	     -0.00000000	     -6.42909841	     13.60563102	     -0.00000000
      1.93000000	      0.00000000	     -0.24711678	     51.65012739	     85.04091035	     46.69103774	      5.42342380	    -10.35603268	     11.48097697	     -0.00000000	     -6.84029996	     12.72791293	     -0.00000000
      1.93500000	      0.00000000	     -0.25142757	     51.25426276	     85.82264594	     47.07690869	      5.82345321	    -11.10375242	     10.63449486	     -0.00000000	     -7.34322604	     11.91522534	     -0.00000000
      1.94000000	      0.00000000	     -0.25592829	     50.84441041	     86.63269716	     47.47710757	      6.18015791	    -11.54561516	      9.80557278	     -0.00000000	     -8.05099881	     11.05895472	     -0.00000000
      1.94500000	      0.00000000	     -0.26029014	     50.45048395	     87.41195052	     47.86243447	      6.60647990	    -12.13088391	      8.96536191	     -0.00000000	     -8.64795860	     10.21954233	     -0.00000000
      1.95000000	      0.00000000	     -0.26397900	     50.11979674	     88.06663004	     48.18642678	      7.01832715	    -12.89298511	      8.13673301	     -0.00000000	     -9.21661426	      9.38566852	     -0.00000000
      1.95500000	      0.00000000	     -0.26919276	     49.65615932	     88.98534143	     48.64150075	      7.35426383	    -13.29262728	      7.11520425	     -0.00000000	     -9.67121508	      8.54101969	     -0.00000000
      1.96000000	      0.00000000	     -0.27308582	     49.31276363	     89.66642280	     48.97918643	      7.81428771	    -13.96138893	      6.27494143	     -0.00000000	    -10.50095816	      7.53242133	     -0.00000000
      1.96500000	      0.00000000	     -0.27817359	     48.86750058	     90.55036575	     49.41786633	      8.12592834	    -14.34370794	      5.24279905	     -0.00000000	    -10.94143524	      6.67976726	     -0.00000000
      1.97000000	     -0.00000000	     -0.28208726	     48.52763886	     91.22570175	     49.75334062	      8.57131701	    -15.16634192	      4.42415678	     -0.00000000	    -11.56342514	      5.65696373	     -0.00000000
      1.97500000	     -0.00000000	     -0.28737359	     48.07214261	     92.13170081	     50.20384342	      8.89324167	    -15.56368215	      3.39544425	     -0.00000000	    -11.96366226	      4.83497901	     -0.00000000
      1.98000000	     -0.00000000	     -0.29120995	     47.74409395	     92.78484541	     50.52893936	      9.35665666	    -16.26379703	      2.35902673	     -0.00000000	    -12.67718340	      3.79636841	     -0.00000000
      1.98500000	     -0.00000000	     -0.29597399	     47.33959305	     93.59096652	     50.93055957	      9.74050979	    -16.78235809	      1.53869267	     -0.00000000	    -13.39610266	      2.77444952	     -0.00000000
